<!DOCTYPE svg PUBLIC "-//W3C//DTD SVG 1.1//EN" "http://www.w3.org/Graphics/SVG/1.1/DTD/svg11.dtd">
<!-- Uploaded to: SVG Repo, www.svgrepo.com, Transformed by: SVG Repo Mixer Tools -->
<svg width="800px" height="800px" viewBox="0 0 32 32" xmlns="http://www.w3.org/2000/svg" fill="#000000">
<g id="SVGRepo_bgCarrier" stroke-width="0"/>
<g id="SVGRepo_tracerCarrier" stroke-linecap="round" stroke-linejoin="round"/>
<g id="SVGRepo_iconCarrier"> <g fill="none"> <circle fill="#800000" cx="16" cy="16" r="16"/> <path d="M23.073 7.5a.653.653 0 01.477.192l-.006-.006a.65.65 0 01.184.364l.009.104-.007 3.417c0 .449-.178.88-.496 1.197l-4.24 4.227 4.537 4.523a1.689 1.689 0 11-2.383 2.394l-5.735-5.717a1.686 1.686 0 010-2.395l5.022-5.012h-8.498v11.889a1.69 1.69 0 01-1.718 1.718l-.17-.006A1.696 1.696 0 018.5 22.677V9.347c0-1.066.763-1.847 1.796-1.847z" fill="#FFF"/> </g> </g>
</svg>